#N canvas 354 89 1079 808 12;
#X obj 375 364 osc~;
#X obj 453 363 osc~;
#X obj 537 366 osc~;
#X obj 627 367 osc~;
#X obj 719 365 osc~;
#X obj 491 986 dac~;
#X obj 518 663 *~;
#X floatatom 21 183 5 0 0 0 - - - 12;
#X text 14 11 fundamental;
#X obj 452 328 * 2;
#X obj 534 331 * 3;
#X obj 628 330 * 4;
#X obj 720 325 * 5;
#X obj 825 622 line~;
#X obj 829 433 vsl 17 128 0 1 0 0 empty empty empty 0 -9 0 10 #e4e4e4 #4d4d4d #373737 0 1;
#X msg 825 591 \$1 100;
#X obj 375 566 *~;
#X obj 400 400 vsl 17 128 0 0.5 0 0 empty empty empty 0 -9 0 10 #e4e4e4 #4d4d4d #373737 0 1;
#X obj 451 566 *~;
#X obj 476 400 vsl 17 128 0 0.5 0 0 empty empty empty 0 -9 0 10 #e4e4e4 #4d4d4d #373737 0 1;
#X obj 535 566 *~;
#X obj 570 400 vsl 17 128 0 0.25 0 0 empty empty empty 0 -9 0 10 #e4e4e4 #4d4d4d #373737 0 1;
#X obj 625 566 *~;
#X obj 650 400 vsl 17 128 0 0.25 0 0 empty empty empty 0 -9 0 10 #e4e4e4 #4d4d4d #373737 0 1;
#X obj 717 566 *~;
#X obj 742 400 vsl 17 128 0 0.25 0 0 empty empty empty 0 -9 0 10 #e4e4e4 #4d4d4d #373737 0 1;
#X obj 189 12 metro 500;
#X obj 151 12 tgl 25 0 empty empty empty 17 7 0 10 #e4e4e4 #4d4d4d #373737 0 1;
#X floatatom 274 12 5 0 0 0 - - - 12;
#X msg 21 113 69;
#X msg 68 115 71;
#X msg 108 113 72;
#X msg 150 113 74;
#X msg 190 113 76;
#X msg 237 113 77;
#X msg 284 115 79;
#X msg 329 114 81;
#X obj 189 47 random 8;
#X obj 189 79 sel 0 1 2 3 4 5 6 7;
#X obj 298 364 osc~;
#X obj 298 566 *~;
#X obj 323 400 vsl 17 128 0 0.5 0 0 empty empty empty 0 -9 0 10 #e4e4e4 #4d4d4d #373737 0 1;
#X obj 303 328 / 2;
#X obj 212 364 osc~;
#X obj 212 566 *~;
#X obj 237 400 vsl 17 128 0 0.5 0 0 empty empty empty 0 -9 0 10 #e4e4e4 #4d4d4d #373737 0 1;
#X obj 217 328 / 4;
#X obj 109 364 osc~;
#X obj 109 566 *~;
#X obj 134 400 vsl 17 128 0 0.5 0 0 empty empty empty 0 -9 0 10 #e4e4e4 #4d4d4d #373737 0 1;
#X obj 114 328 / 8;
#X obj 21 150 mtof;
#X obj 602 805 clip~ -0.5 0.5;
#X msg 647 768 -1;
#X msg 745 768 1;
#X obj 476 768 gate~ 2;
#X floatatom 746 832 4 0 0 0 - - - 16;
#X floatatom 810 842 4 0 0 0 - - - 16;
#X obj 518 701 /~ 4;
#N canvas 0 0 450 250 (subpatch) 0;
#X array output 300 float 2;
#X coords 0 1 300 -1 502 212 1;
#X restore 776 913 graph;
#X obj 664 900 tgl 25 0 empty empty empty 17 7 0 10 #e4e4e4 #4d4d4d #373737 0 1;
#X obj 642 968 tabwrite~ output;
#X msg 677 766 -0.2;
#X msg 776 768 0.2;
#X msg 358 724 1;
#X msg 389 724 2;
#X msg 323 724 0;
#X obj 664 934 metro 100;
#X connect 0 0 16 0;
#X connect 1 0 18 0;
#X connect 2 0 20 0;
#X connect 3 0 22 0;
#X connect 4 0 24 0;
#X connect 6 0 58 0;
#X connect 7 0 0 0;
#X connect 7 0 9 0;
#X connect 7 0 10 0;
#X connect 7 0 11 0;
#X connect 7 0 12 0;
#X connect 7 0 42 0;
#X connect 7 0 46 0;
#X connect 7 0 50 0;
#X connect 9 0 1 0;
#X connect 10 0 2 0;
#X connect 11 0 3 0;
#X connect 12 0 4 0;
#X connect 13 0 6 1;
#X connect 14 0 15 0;
#X connect 15 0 13 0;
#X connect 16 0 6 0;
#X connect 17 0 16 1;
#X connect 18 0 6 0;
#X connect 19 0 18 1;
#X connect 20 0 6 0;
#X connect 21 0 20 1;
#X connect 22 0 6 0;
#X connect 23 0 22 1;
#X connect 24 0 6 0;
#X connect 25 0 24 1;
#X connect 26 0 37 0;
#X connect 26 0 7 0;
#X connect 27 0 26 0;
#X connect 28 0 26 1;
#X connect 29 0 51 0;
#X connect 30 0 51 0;
#X connect 31 0 51 0;
#X connect 32 0 51 0;
#X connect 33 0 51 0;
#X connect 35 0 51 0;
#X connect 36 0 51 0;
#X connect 37 0 38 0;
#X connect 38 0 29 0;
#X connect 38 1 30 0;
#X connect 38 2 31 0;
#X connect 38 3 32 0;
#X connect 38 4 33 0;
#X connect 38 5 34 0;
#X connect 38 6 35 0;
#X connect 38 7 36 0;
#X connect 39 0 40 0;
#X connect 40 0 6 0;
#X connect 41 0 40 1;
#X connect 42 0 39 0;
#X connect 43 0 44 0;
#X connect 44 0 6 0;
#X connect 45 0 44 1;
#X connect 46 0 43 0;
#X connect 47 0 48 0;
#X connect 48 0 6 0;
#X connect 49 0 48 1;
#X connect 50 0 47 0;
#X connect 51 0 7 0;
#X connect 52 0 5 0;
#X connect 52 0 5 1;
#X connect 52 0 61 0;
#X connect 53 0 52 1;
#X connect 54 0 52 2;
#X connect 55 0 5 1;
#X connect 55 0 5 0;
#X connect 55 0 61 0;
#X connect 55 1 52 0;
#X connect 56 0 52 1;
#X connect 57 0 52 2;
#X connect 58 0 55 1;
#X connect 60 0 67 0;
#X connect 62 0 52 1;
#X connect 63 0 52 2;
#X connect 64 0 55 0;
#X connect 65 0 55 0;
#X connect 66 0 55 0;
#X connect 67 0 61 0;
