#N canvas 190 37 1236 840 12;
#X obj 302 539 vsl 19 162 0 1 0 0 empty empty empty 0 -9 0 12 #fcfcfc #000000 #000000 0 1;
#X obj 265 744 *~;
#X floatatom 266 391 5 0 0 0 - - - 0;
#X obj 360 471 / 2;
#X obj 463 467 * 2;
#X obj 543 464 / 4;
#X obj 359 505 osc~;
#X obj 395 546 vsl 19 162 0 1 0 0 empty empty empty 0 -9 0 12 #fcfcfc #000000 #000000 0 1;
#X obj 358 751 *~;
#X obj 464 504 osc~;
#X obj 500 545 vsl 19 162 0 1 0 0 empty empty empty 0 -9 0 12 #fcfcfc #000000 #000000 0 1;
#X obj 463 750 *~;
#X obj 546 495 osc~;
#X obj 582 536 vsl 19 162 0 1 0 0 empty empty empty 0 -9 0 12 #fcfcfc #000000 #000000 0 1;
#X obj 545 741 *~;
#X obj 449 926 *~;
#X obj 641 532 vsl 19 162 0 1 0 0 empty empty empty 0 -9 0 12 #fcfcfc #000000 #000000 0 1;
#X obj 643 737 line~;
#X msg 643 708 \$1 100;
#X obj 458 994 dac~;
#X obj 794 761 vline~;
#X msg 771 726 1 1000 \, 0.5 500 1000 \, 0 1000 2000;
#X obj 776 354 vsl 19 162 0 1000 0 0 empty empty empty 0 -9 0 12 #202020 #e3c6ff #000000 0 1;
#X obj 966 349 vsl 19 162 0 1000 0 0 empty empty empty 0 -9 0 12 #202020 #e3c6ff #000000 0 1;
#X obj 1115 353 vsl 19 162 0 2000 0 0 empty empty empty 0 -9 0 12 #202020 #e3c6ff #000000 0 1;
#X obj 838 354 vsl 19 162 0 1 0 0 empty empty empty 0 -9 0 12 #202020 #e3c6ff #000000 0 1;
#X text 840 323 decay;
#X floatatom 776 524 5 0 0 0 - - - 0;
#X floatatom 838 524 5 0 0 0 - - - 0;
#X floatatom 966 519 5 0 0 0 - - - 0;
#X floatatom 1115 523 5 0 0 0 - - - 0;
#X msg 794 665 1 \$2 \, \$3 \$4 \$2 \, 0 \$5 \$6;
#X obj 793 633 pack 0 0 0 0 0 0;
#X obj 961 627 +;
#X text 722 321 attack (ms);
#X text 940 319 sustain (ms);
#X text 1092 318 release (ms);
#X obj 904 553 bng 19 250 50 0 empty empty empty 0 -10 0 12 #fcfcfc #000000 #000000;
#X text 58 47 fundamental;
#X obj 195 48 tgl 25 0 empty empty empty 17 7 0 10 #e4e4e4 #4d4d4d #373737 0 1;
#X floatatom 319 48 5 0 0 0 - - - 12;
#X msg 65 149 69;
#X msg 112 151 71;
#X msg 152 149 72;
#X msg 194 149 74;
#X msg 234 149 76;
#X msg 281 149 77;
#X msg 328 151 79;
#X msg 373 150 81;
#X obj 233 83 random 8;
#X obj 233 115 sel 0 1 2 3 4 5 6 7;
#X obj 233 48 metro 600;
#X obj 413 93 bng 25 250 50 0 empty empty empty 17 7 0 10 #e4e4e4 #4d4d4d #373737;
#X obj 65 183 mtof;
#X obj 223 570 phasor~;
#X connect 0 0 1 1;
#X connect 1 0 15 0;
#X connect 2 0 3 0;
#X connect 2 0 4 0;
#X connect 2 0 5 0;
#X connect 2 0 32 0;
#X connect 2 0 54 0;
#X connect 3 0 6 0;
#X connect 4 0 9 0;
#X connect 5 0 12 0;
#X connect 6 0 8 0;
#X connect 7 0 8 1;
#X connect 8 0 15 0;
#X connect 9 0 11 0;
#X connect 10 0 11 1;
#X connect 11 0 15 0;
#X connect 12 0 14 0;
#X connect 13 0 14 1;
#X connect 14 0 15 0;
#X connect 15 0 19 0;
#X connect 15 0 19 1;
#X connect 16 0 18 0;
#X connect 18 0 17 0;
#X connect 20 0 15 1;
#X connect 21 0 20 0;
#X connect 22 0 27 0;
#X connect 23 0 29 0;
#X connect 24 0 30 0;
#X connect 25 0 28 0;
#X connect 27 0 32 1;
#X connect 27 0 33 0;
#X connect 28 0 32 2;
#X connect 29 0 32 3;
#X connect 29 0 33 1;
#X connect 29 0 37 0;
#X connect 30 0 32 4;
#X connect 31 0 20 0;
#X connect 32 0 31 0;
#X connect 33 0 32 5;
#X connect 37 0 22 0;
#X connect 39 0 51 0;
#X connect 40 0 51 1;
#X connect 41 0 53 0;
#X connect 42 0 53 0;
#X connect 43 0 53 0;
#X connect 44 0 53 0;
#X connect 45 0 53 0;
#X connect 46 0 53 0;
#X connect 47 0 53 0;
#X connect 48 0 53 0;
#X connect 49 0 50 0;
#X connect 50 0 41 0;
#X connect 50 1 42 0;
#X connect 50 2 43 0;
#X connect 50 3 44 0;
#X connect 50 4 45 0;
#X connect 50 5 46 0;
#X connect 50 6 47 0;
#X connect 50 7 48 0;
#X connect 51 0 49 0;
#X connect 51 0 52 0;
#X connect 53 0 2 0;
#X connect 54 0 1 0;
