#N canvas 706 58 745 761 12;
#X floatatom 243 89 7 0 0 0 - - - 16;
#X obj 243 143 osc~ 440;
#X obj 280 272 *~;
#X floatatom 395 62 7 0 0 0 - - - 16;
#X obj 395 116 osc~ 440;
#X obj 396 161 +~ 1;
#X obj 396 187 /~ 2;
#X obj 396 228 *~;
#X floatatom 448 187 8 0 0 0 - - - 12;
#X obj 305 834 dac~;
#X obj 305 332 *~;
#X floatatom 345 282 8 0 0 0 - - - 12;
#X obj 505 277 tgl 25 0 empty empty empty 17 7 0 10 #e4e4e4 #4d4d4d #373737 0 1;
#X obj 505 309 metro 100;
#N canvas 0 0 450 250 (subpatch) 0;
#X array \$0-array-osc 500 float 2;
#X coords 0 1 500 -1 200 140 1;
#X restore 618 116 graph;
#X text 415 25 modulator;
#X text 236 50 carrier;
#X obj 505 346 tabwrite~ \$0-array-osc;
#X floatatom 428 473 7 0 0 0 - - - 16;
#X obj 465 656 *~;
#X floatatom 580 446 7 0 0 0 - - - 16;
#X obj 580 500 osc~ 440;
#X obj 581 545 +~ 1;
#X obj 581 571 /~ 2;
#X obj 581 612 *~;
#X floatatom 632 612 8 0 0 0 - - - 12;
#X obj 490 716 *~;
#X floatatom 530 666 8 0 0 0 - - - 12;
#X obj 690 661 tgl 25 0 empty empty empty 17 7 0 10 #e4e4e4 #4d4d4d #373737 0 1;
#X obj 690 693 metro 100;
#X text 600 409 modulator;
#X text 421 434 carrier;
#N canvas 0 0 450 250 (subpatch) 0;
#X array \$1-array-phasor 500 float 2;
#X coords 0 1 500 -1 200 140 1;
#X restore 690 782 graph;
#X obj 428 527 phasor~ 440;
#X obj 690 730 tabwrite~ \$1-array-phasor;
#X obj 428 570 *~ 2;
#X obj 428 601 -~ 1;
#X floatatom 713 446 7 0 0 0 - - - 16;
#X obj 713 500 phasor~ 440;
#X obj 603 277 bng 25 250 50 0 empty empty empty 17 7 0 10 #e4e4e4 #4d4d4d #373737;
#X msg 651 277 stop;
#X connect 0 0 1 0;
#X connect 1 0 2 0;
#X connect 2 0 10 0;
#X connect 3 0 4 0;
#X connect 4 0 5 0;
#X connect 5 0 6 0;
#X connect 6 0 7 0;
#X connect 7 0 2 1;
#X connect 8 0 7 1;
#X connect 10 0 9 0;
#X connect 10 0 9 1;
#X connect 10 0 17 0;
#X connect 11 0 10 1;
#X connect 12 0 13 0;
#X connect 13 0 17 0;
#X connect 18 0 33 0;
#X connect 19 0 26 0;
#X connect 20 0 21 0;
#X connect 21 0 22 0;
#X connect 22 0 23 0;
#X connect 24 0 19 1;
#X connect 25 0 24 1;
#X connect 26 0 9 0;
#X connect 26 0 9 1;
#X connect 26 0 34 0;
#X connect 27 0 26 1;
#X connect 28 0 29 0;
#X connect 29 0 34 0;
#X connect 33 0 35 0;
#X connect 35 0 36 0;
#X connect 36 0 19 0;
#X connect 37 0 38 0;
#X connect 39 0 13 0;
#X connect 40 0 13 0;
