#N canvas 659 72 691 632 12;
#X obj 131 350 osc~;
#X obj 142 471 *~;
#X obj 179 281 vsl 19 162 0 1 0 0 empty empty empty 0 -9 0 12 #fcfcfc #000000 #000000 0 1;
#X obj 130 525 dac~;
#X obj 133 274 +~;
#X floatatom 150 237 5 0 0 0 - - - 0;
#X text 57 348 carrier;
#X text 200 235 carrier frequency;
#X obj 157 82 osc~;
#X text 200 80 modulator frequency;
#X floatatom 154 38 5 0 0 0 - - - 0;
#X obj 148 154 *~;
#X obj 357 6 vsl 19 162 0 1000 0 0 empty empty empty 0 -9 0 12 #fcfcfc #000000 #000000 0 1;
#X floatatom 392 188 5 0 0 0 - - - 0;
#X connect 0 0 1 0;
#X connect 1 0 3 0;
#X connect 1 0 3 1;
#X connect 2 0 1 1;
#X connect 4 0 0 0;
#X connect 5 0 4 1;
#X connect 8 0 11 0;
#X connect 10 0 8 0;
#X connect 11 0 4 0;
#X connect 12 0 11 1;
#X connect 12 0 13 0;
