#N canvas 521 67 907 759 12;
#X obj 56 208 soundfiler;
#X floatatom 56 237 7 0 0 0 - - - 12;
#X listbox 123 237 16 0 0 0 - - - 0;
#X text 40 257 # samples;
#X text 120 257 info: sample rate \, header size \, channels \, bytes \, endianness;
#X obj 281 136 cnv 19 248 98 empty empty empty 20 12 0 12 #e0e0e0 #404040 0;
#N canvas 0 22 450 300 (subpatch) 0;
#X array sample 738419 float 2;
#X coords 0 1 738419 -1 250 100 1 0 0;
#X restore 280 135 graph;
#X msg 30 44 read -resize ./sample1.wav sample;
#X obj 418 688 dac~;
#X obj 419 601 *~;
#X obj 443 413 vsl 19 162 0 1 0 0 empty empty empty 0 -9 0 12 #fcfcfc #000000 #000000 0 1;
#X obj 117 434 delwrite~ buffer 5000;
#X floatatom 310 362 5 0 0 0 - - - 0;
#X obj 313 329 hsl 162 19 0 5000 0 0 empty empty empty -2 -10 0 12 #fcfcfc #000000 #000000 0 1;
#X obj 310 393 delread~ buffer 0;
#X obj 57 330 bng 19 250 50 0 empty empty empty 0 -10 0 12 #fcfcfc #000000 #000000;
#X obj 58 368 tabplay~ sample;
#X obj 48 637 dac~;
#X obj 48 607 *~;
#X obj 70 424 vsl 19 162 0 1 0 0 empty empty empty 0 -9 0 12 #fcfcfc #000000 #000000 0 1;
#X msg 56 79 read -resize ./sample3.wav sample;
#X msg 99 326 stop;
#X obj 551 600 *~;
#X obj 575 412 vsl 19 162 0 1 0 0 empty empty empty 0 -9 0 12 #fcfcfc #000000 #000000 0 1;
#X obj 551 624 send~ feedback;
#X obj 133 398 receive~ feedback;
#X text 609 419 decay < 1;
#X floatatom 739 548 5 0 0 0 - - - 0;
#X obj 701 627 rev2~ 100 90 3000 20;
#X connect 0 0 1 0;
#X connect 0 1 2 0;
#X connect 7 0 0 0;
#X connect 9 0 8 0;
#X connect 9 0 8 1;
#X connect 10 0 9 1;
#X connect 12 0 14 0;
#X connect 13 0 12 0;
#X connect 14 0 9 0;
#X connect 14 0 22 0;
#X connect 15 0 16 0;
#X connect 16 0 18 0;
#X connect 16 0 11 0;
#X connect 18 0 17 0;
#X connect 18 0 17 1;
#X connect 19 0 18 1;
#X connect 20 0 0 0;
#X connect 21 0 16 0;
#X connect 22 0 24 0;
#X connect 23 0 22 1;
#X connect 25 0 11 0;
#X connect 27 0 28 1;
#X connect 28 0 8 0;
#X connect 28 0 8 1;
