#N canvas 323 37 1093 833 12;
#X obj 103 399 noise~;
#X obj 146 517 *~;
#X obj 311 181 vsl 19 162 0 500 0 0 empty empty empty 0 -9 0 12 #202020 #c7c6ff #000000 0 1;
#X obj 509 741 dac~;
#X obj 670 674 *~;
#X obj 871 470 vsl 19 162 0 1 0 0 empty empty empty 0 -9 0 12 #fcfcfc #000000 #000000 0 1;
#X floatatom 871 640 5 0 0 0 - - - 0;
#X obj 193 469 line~;
#X msg 196 417 1 50;
#X obj 201 340 bng 19 250 50 0 empty empty empty 0 -10 0 12 #fcfcfc #000000 #000000;
#X floatatom 309 354 5 0 0 0 - - - 0;
#X obj 786 320 vsl 19 162 0 5000 0 0 empty empty empty 0 -9 0 12 #fcfcfc #000000 #000000 0 1;
#X floatatom 786 490 5 0 0 0 - - - 0;
#X obj 146 625 delwrite~ buffer1 100;
#X obj 628 438 delread~ buffer1 100;
#X obj 278 567 receive~ feedback1;
#X obj 670 708 send~ feedback1;
#X obj 560 221 hsl 162 19 0 127 0 0 empty empty empty -2 -10 0 12 #fcfcfc #000000 #000000 0 1;
#X floatatom 557 245 5 0 0 0 - - - 0;
#X obj 557 268 mtof;
#X floatatom 557 292 5 0 0 0 - - - 0;
#X obj 533 362 /;
#X msg 486 329 1000;
#X floatatom 533 386 5 0 0 0 - - - 0;
#X obj 172 251 metro 200;
#X obj 167 205 tgl 19 0 empty empty empty 0 -10 0 12 #fcfcfc #000000 #000000 0 1;
#X obj 230 49 vsl 19 162 0 1000 0 0 empty empty empty 0 -9 0 12 #202020 #c7c6ff #000000 0 1;
#X floatatom 228 222 5 0 0 0 - - - 0;
#X msg 459 153 40;
#X msg 505 152 42;
#X msg 549 149 44;
#X msg 641 153 47;
#X msg 690 150 49;
#X msg 768 154 52;
#X floatatom 530 67 5 0 0 0 - - - 0;
#X obj 523 40 random 8;
#X msg 595 152 45;
#X msg 729 151 51;
#X obj 448 633 rev2~ 100 90 3000 50;
#X floatatom 500 586 5 0 0 0 - - - 0;
#X floatatom 547 575 5 0 0 0 - - - 0;
#X floatatom 551 607 5 0 0 0 - - - 0;
#X floatatom 597 597 5 0 0 0 - - - 0;
#X obj 234 379 pipe 10;
#X msg 260 419 0 \$1;
#X obj 660 585 lop~ 2000;
#X obj 538 102 sel 0 1 2 3 4 5 6 7 8;
#X connect 0 0 1 0;
#X connect 1 0 13 0;
#X connect 2 0 10 0;
#X connect 4 0 16 0;
#X connect 5 0 6 0;
#X connect 6 0 4 1;
#X connect 7 0 1 1;
#X connect 8 0 7 0;
#X connect 9 0 8 0;
#X connect 9 0 43 0;
#X connect 10 0 43 1;
#X connect 11 0 12 0;
#X connect 12 0 45 1;
#X connect 14 0 38 0;
#X connect 14 0 45 0;
#X connect 15 0 13 0;
#X connect 17 0 18 0;
#X connect 18 0 19 0;
#X connect 19 0 20 0;
#X connect 20 0 21 1;
#X connect 20 0 22 0;
#X connect 21 0 23 0;
#X connect 22 0 21 0;
#X connect 23 0 14 0;
#X connect 24 0 9 0;
#X connect 24 0 35 0;
#X connect 25 0 24 0;
#X connect 26 0 27 0;
#X connect 27 0 24 1;
#X connect 28 0 17 0;
#X connect 29 0 17 0;
#X connect 30 0 17 0;
#X connect 31 0 17 0;
#X connect 32 0 17 0;
#X connect 33 0 17 0;
#X connect 34 0 46 0;
#X connect 35 0 34 0;
#X connect 36 0 17 0;
#X connect 37 0 17 0;
#X connect 38 0 3 1;
#X connect 38 0 3 0;
#X connect 39 0 38 1;
#X connect 40 0 38 2;
#X connect 41 0 38 3;
#X connect 42 0 38 4;
#X connect 43 0 44 0;
#X connect 44 0 7 0;
#X connect 45 0 4 0;
#X connect 46 0 28 0;
#X connect 46 1 29 0;
#X connect 46 2 30 0;
#X connect 46 3 36 0;
#X connect 46 4 31 0;
#X connect 46 5 32 0;
#X connect 46 6 37 0;
#X connect 46 7 33 0;
