#N canvas 24 44 831 842 12;
#X text 31 23 Karplus Strong - physical modelling synthesis;
#X obj 45 278 noise~;
#X obj 151 191 tgl 19 0 empty empty empty 0 -10 0 12 #fcfcfc #000000 #000000 0 1;
#X obj 152 278 bng 19 250 50 0 empty empty empty 0 -10 0 12 #fcfcfc #000000 #000000;
#X obj 143 368 line~;
#X obj 45 437 *~;
#X obj 158 710 dac~;
#X obj 461 736 send~ feedback;
#X obj 188 431 receive~ feedback;
#X floatatom 480 642 5 0 127 0 - - - 0;
#X obj 457 684 *~;
#X obj 481 586 hsl 162 19 0 127 0 0 empty empty empty -2 -10 0 12 #fcfcfc #000000 #000000 0 1;
#X obj 479 610 / 127;
#X text 486 562 resonance;
#X obj 460 207 hsl 162 19 0 127 0 0 empty empty empty -2 -10 0 12 #fcfcfc #000000 #000000 0 1;
#X floatatom 457 231 5 0 0 0 - - - 0;
#X obj 457 254 mtof;
#X floatatom 457 278 5 0 0 0 - - - 0;
#X obj 45 520 delwrite~ buffer 100;
#X obj 407 420 delread~ buffer 100;
#X obj 439 357 /;
#X msg 411 312 1000;
#X floatatom 439 381 5 0 0 0 - - - 0;
#X obj 417 549 lop~ 2000;
#X obj 488 485 hsl 162 19 0 3000 0 0 empty empty empty -2 -10 0 12 #fcfcfc #000000 #000000 0 1;
#X floatatom 486 521 5 0 0 0 - - - 0;
#X text 633 207 pitch;
#X text 480 460 damping;
#X obj 451 49 random 8;
#X obj 452 77 sel 0 1 2 3 4 5 6 7 8;
#X msg 143 332 1 50;
#X msg 375 123 40;
#X msg 412 125 42;
#X msg 455 126 44;
#X msg 499 127 45;
#X msg 544 128 47;
#X msg 581 129 49;
#X msg 622 131 51;
#X msg 664 132 52;
#X obj 152 223 metro 200;
#X obj 203 309 pipe 10;
#X floatatom 268 269 5 0 0 0 - - - 0;
#X msg 203 335 0 \$1;
#X floatatom 225 192 5 0 0 0 - - - 0;
#X obj 160 678 rev2~ 100 90 3000 20;
#X floatatom 193 618 5 0 0 0 - - - 0;
#X floatatom 227 642 5 0 0 0 - - - 0;
#X floatatom 262 614 5 0 0 0 - - - 0;
#X floatatom 296 639 5 0 0 0 - - - 0;
#X connect 1 0 5 0;
#X connect 2 0 39 0;
#X connect 3 0 30 0;
#X connect 3 0 40 0;
#X connect 4 0 5 1;
#X connect 5 0 18 0;
#X connect 8 0 18 0;
#X connect 9 0 10 1;
#X connect 10 0 7 0;
#X connect 11 0 12 0;
#X connect 12 0 9 0;
#X connect 14 0 15 0;
#X connect 15 0 16 0;
#X connect 16 0 17 0;
#X connect 17 0 21 0;
#X connect 17 0 20 1;
#X connect 19 0 23 0;
#X connect 19 0 44 0;
#X connect 20 0 22 0;
#X connect 21 0 20 0;
#X connect 22 0 19 0;
#X connect 23 0 10 0;
#X connect 24 0 25 0;
#X connect 25 0 23 1;
#X connect 28 0 29 0;
#X connect 29 0 31 0;
#X connect 29 1 32 0;
#X connect 29 2 33 0;
#X connect 29 3 34 0;
#X connect 29 4 35 0;
#X connect 29 5 36 0;
#X connect 29 6 37 0;
#X connect 29 7 38 0;
#X connect 30 0 4 0;
#X connect 31 0 14 0;
#X connect 32 0 14 0;
#X connect 33 0 14 0;
#X connect 34 0 14 0;
#X connect 35 0 14 0;
#X connect 36 0 14 0;
#X connect 37 0 14 0;
#X connect 38 0 14 0;
#X connect 39 0 3 0;
#X connect 39 0 28 0;
#X connect 40 0 42 0;
#X connect 41 0 40 1;
#X connect 42 0 4 0;
#X connect 43 0 39 1;
#X connect 44 0 6 0;
#X connect 44 0 6 1;
#X connect 45 0 44 1;
#X connect 46 0 44 2;
#X connect 47 0 44 3;
#X connect 48 0 44 4;
