#N canvas 827 239 527 327 12;
#X floatatom 223 216 4 0 0 0 - - - 12;
#X obj 112 254 osc~;
#X obj 229 179 hsl 111 18 0 3000 0 0 empty empty empty -2 -8 0 10 #e4e4e4 #4d4d4d #373737 0 1;
#X obj 416 53 vsl 17 128 0 127 0 0 empty empty empty 0 -9 0 10 #e4e4e4 #4d4d4d #373737 0 1;
#X obj 112 383 *~;
#X obj 112 439 dac~;
#X obj 297 317 line~;
#X msg 297 254 1 5000;
#X msg 373 256 0 1000;
#X msg 183 123 440;
#X msg 31 57 10000 1000;
#X msg 148 61 20 2000;
#X obj 52 123 line~;
#X obj 111 126 line;
#X msg 241 118 880;
#X connect 0 0 1 0;
#X connect 1 0 4 0;
#X connect 2 0 0 0;
#X connect 4 0 5 0;
#X connect 4 0 5 1;
#X connect 6 0 4 1;
#X connect 7 0 6 0;
#X connect 8 0 6 0;
#X connect 9 0 1 0;
#X connect 10 0 12 0;
#X connect 10 0 13 0;
#X connect 11 0 12 0;
#X connect 11 0 13 0;
#X connect 13 0 1 0;
#X connect 14 0 1 0;
