#N canvas 827 239 527 327 12;
#X obj 133 346 line~;
#X obj 133 388 osc~ 440;
#X obj 149 505 *~;
#X obj 161 562 dac~;
#X msg 247 400 \$1 100;
#X obj 247 455 line~;
#X obj 251 149 vsl 17 128 0 1 0 0 empty empty empty 0 -9 0 10 #e4e4e4 #4d4d4d #373737 0 1;
#X obj 137 149 vsl 17 128 0 1000 0 0 empty empty empty 0 -9 0 10 #e4e4e4 #4d4d4d #373737 0 1;
#X msg 133 306 \$1 300;
#X obj 133 113 random 1000;
#X obj 126 57 metro 1000;
#X floatatom 178 19 5 0 0 0 - - - 12;
#X obj 112 18 tgl 25 0 empty empty empty 17 7 0 10 #e4e4e4 #4d4d4d #373737 0 1;
#X connect 0 0 1 0;
#X connect 1 0 2 0;
#X connect 2 0 3 0;
#X connect 2 0 3 1;
#X connect 4 0 5 0;
#X connect 5 0 2 1;
#X connect 6 0 4 0;
#X connect 7 0 8 0;
#X connect 8 0 0 0;
#X connect 9 0 7 0;
#X connect 10 0 9 0;
#X connect 11 0 10 1;
#X connect 12 0 10 0;
