#N canvas 827 239 527 327 12;
#X obj 66 83 soundfiler;
#N canvas 0 0 450 250 (subpatch) 0;
#X array audioChannel1 846720 float 2;
#X coords 0 1 846720 -1 200 140 1;
#X restore 340 138 graph;
#N canvas 0 0 450 250 (subpatch) 0;
#X array audioChannel2 846720 float 2;
#X coords 0 1 846720 -1 200 140 1;
#X restore 341 308 graph;
#X obj 68 209 tabplay~ audioChannel1;
#X obj 124 254 tabplay~ audioChannel2;
#X obj 115 153 bng 25 250 50 0 empty empty empty 17 7 0 10 #e4e4e4 #4d4d4d #373737;
#X msg 168 153 stop;
#X obj 86 360 *~;
#X obj 150 358 *~;
#X obj 102 489 dac~;
#X floatatom 177 319 5 0 0 0 - - - 12;
#X msg 232 152 1000 10000;
#X msg 66 45 read -resize sample1.wav audioChannel1 audioChannel2;
#X obj 111 111 print;
#X connect 0 1 13 0;
#X connect 3 0 7 0;
#X connect 4 0 8 0;
#X connect 5 0 3 0;
#X connect 5 0 4 0;
#X connect 6 0 3 0;
#X connect 6 0 4 0;
#X connect 7 0 9 0;
#X connect 8 0 9 1;
#X connect 10 0 7 1;
#X connect 10 0 8 1;
#X connect 11 0 3 0;
#X connect 11 0 4 0;
#X connect 12 0 0 0;
